<?xml version="1.0" standalone="no"?>
<!DOCTYPE svg PUBLIC "-//W3C//DTD SVG 20010904//EN"
 "http://www.w3.org/TR/2001/REC-SVG-20010904/DTD/svg10.dtd">
<svg version="1.0" xmlns="http://www.w3.org/2000/svg"
 width="300.000000pt" height="300.000000pt" viewBox="0 0 300.000000 300.000000"
 preserveAspectRatio="xMidYMid meet">
<g transform="translate(0.000000,300.000000) scale(0.100000,-0.100000)"
fill="#000000" stroke="none">
<path d="M1300 2730 c-14 -5 -64 -21 -112 -35 -48 -14 -93 -31 -101 -38 -7 -7
-28 -21 -47 -31 -102 -56 -185 -182 -230 -352 -28 -104 -31 -331 -5 -427 7
-27 6 -27 -18 -16 -47 21 -57 8 -57 -76 0 -62 5 -86 29 -137 16 -35 35 -90 41
-123 13 -66 23 -90 50 -120 10 -11 23 -47 30 -80 17 -88 39 -165 58 -205 24
-49 99 -165 117 -180 19 -16 19 -30 1 -30 -8 0 -27 -10 -43 -23 -15 -12 -84
-49 -153 -80 -69 -32 -199 -95 -290 -140 l-165 -82 -3 -278 c-2 -271 -2 -277
18 -277 18 0 19 6 18 113 -1 63 2 119 6 125 4 7 4 17 0 24 -4 6 -8 65 -8 129
l-1 118 32 18 c23 12 29 20 20 26 -8 6 -6 7 6 3 23 -7 67 13 61 29 -5 12 64
48 91 48 8 0 15 4 15 9 0 4 6 8 13 8 6 0 33 11 59 24 25 13 59 27 74 30 25 7
26 6 13 -10 -12 -16 -12 -17 4 -11 10 4 21 7 23 7 2 0 4 9 4 20 0 20 28 43 69
55 19 6 23 4 18 -7 -11 -31 26 -13 41 19 20 42 33 43 21 1 -9 -34 -12 -95 -2
-68 26 78 87 157 108 140 18 -15 27 11 9 27 -10 10 -14 10 -17 0 -3 -7 -6 0
-6 14 -1 15 -10 37 -21 51 -15 20 -16 28 -7 37 7 7 8 12 2 11 -31 -6 -44 4
-65 53 -12 28 -27 55 -32 58 -5 3 -11 12 -12 20 -2 8 -8 25 -13 39 -6 14 -13
50 -17 80 -4 30 -17 78 -30 106 -13 29 -27 70 -31 93 -4 27 -12 41 -22 41 -12
0 -14 7 -10 30 4 19 3 29 -5 27 -6 -1 -13 4 -16 12 -3 8 0 11 7 7 7 -4 11 1
11 13 0 22 -20 40 -21 19 0 -16 -17 25 -23 58 -3 13 -8 29 -12 36 -4 7 -8 37
-9 68 -1 52 0 56 22 58 17 1 23 -3 23 -19 0 -11 4 -18 9 -15 5 3 6 49 3 103
-11 173 -6 273 19 370 19 70 64 161 98 194 32 33 51 60 51 74 0 8 6 15 14 15
9 0 13 -8 9 -22 -4 -22 -4 -22 11 -4 12 15 13 23 4 33 -13 16 -3 27 45 45 16
6 32 21 37 34 7 17 16 22 37 20 15 -1 39 6 52 16 23 18 77 26 67 10 -2 -4 4
-8 14 -8 10 0 16 6 13 12 -2 7 10 19 27 28 30 15 32 14 37 -4 6 -24 23 -27 23
-4 0 19 40 9 53 -13 7 -12 11 -11 23 4 12 17 13 17 14 1 0 -22 18 -24 26 -3 9
22 27 18 21 -5 -7 -26 8 -26 35 0 15 14 25 17 32 10 7 -7 3 -15 -12 -26 -12
-8 -22 -23 -21 -32 0 -14 2 -13 10 4 8 16 19 20 52 20 48 -1 70 -16 61 -43 -5
-15 -4 -16 5 -3 9 13 12 13 20 1 5 -8 7 -20 4 -28 -3 -7 0 -13 6 -13 6 0 11
11 11 25 0 31 16 33 23 4 4 -13 11 -20 20 -16 8 3 21 -6 31 -24 9 -16 23 -29
29 -29 7 0 6 -4 -3 -10 -12 -7 -12 -12 -2 -22 10 -10 17 -10 31 -1 20 13 41 0
41 -25 0 -7 5 -10 10 -7 13 8 13 -1 0 -26 -12 -22 6 -49 27 -42 6 2 14 -10 18
-27 4 -17 13 -34 21 -37 8 -3 14 -15 14 -27 0 -11 7 -30 15 -40 23 -30 47
-126 49 -191 0 -33 -3 -120 -7 -192 -6 -86 -5 -133 1 -133 5 0 12 9 15 20 3
14 14 20 32 20 21 0 26 -4 21 -16 -4 -10 -8 -53 -10 -98 -2 -45 -9 -101 -15
-126 -6 -25 -15 -63 -20 -85 -8 -36 -8 -33 -6 25 2 36 6 77 10 92 7 26 0 66
-10 56 -3 -2 -11 -70 -19 -149 -8 -80 -20 -167 -26 -194 -18 -78 -18 -79 -19
-102 -1 -13 -6 -23 -12 -23 -6 0 -9 9 -6 20 3 11 2 22 -3 25 -4 3 -7 -12 -6
-33 1 -23 -4 -42 -14 -50 -13 -11 -13 -11 3 -6 13 5 5 -18 -32 -92 -54 -109
-129 -201 -156 -191 -10 5 -18 0 -23 -14 -5 -11 -11 -20 -15 -20 -21 2 -27 0
-27 -12 0 -35 -90 -94 -176 -116 -41 -11 -130 -5 -139 9 -3 5 -14 6 -25 3 -15
-4 -20 0 -20 13 0 16 -2 17 -10 4 -6 -9 -10 -10 -10 -3 0 6 -9 14 -19 18 -12
4 -18 12 -14 21 3 8 -1 14 -10 14 -8 0 -18 6 -21 13 -3 6 -3 1 1 -13 5 -22 4
-23 -11 -11 -9 7 -16 20 -16 28 0 8 -4 11 -10 8 -5 -3 -10 -2 -10 4 0 5 -9 13
-21 16 -14 5 -19 13 -16 25 3 11 -3 26 -14 36 -17 15 -18 15 -25 -10 -5 -21
-1 -32 18 -49 14 -13 27 -28 29 -33 6 -14 98 -77 142 -98 28 -13 63 -18 135
-18 105 0 158 14 222 60 41 29 164 152 201 201 l26 33 65 -63 c48 -48 68 -77
80 -114 9 -27 21 -49 27 -47 13 3 14 -29 2 -60 -5 -13 -12 -32 -16 -43 -7 -20
-7 -20 -15 0 -6 13 -9 15 -9 5 -1 -8 -8 -28 -17 -45 -29 -53 -99 -190 -102
-200 -2 -5 19 14 47 43 33 34 51 62 51 78 0 13 5 24 12 24 6 0 9 3 5 6 -3 3 3
15 14 27 10 11 19 27 19 34 0 7 4 13 8 13 10 0 11 5 18 81 6 57 -3 78 -73 185
l-17 27 40 -27 c41 -27 84 -89 84 -122 0 -13 3 -15 11 -7 7 7 4 21 -12 47 -12
20 -20 39 -17 41 2 3 21 -7 41 -20 38 -26 52 -31 42 -15 -3 6 1 7 9 4 9 -3 16
-10 16 -14 0 -7 21 -18 50 -25 3 -1 19 -7 35 -14 17 -7 42 -15 58 -18 15 -3
30 -10 33 -14 3 -5 13 -9 22 -9 9 0 30 -7 45 -15 16 -8 47 -19 70 -25 68 -18
100 -32 87 -40 -7 -5 -1 -10 17 -14 15 -4 53 -19 84 -33 57 -25 57 -25 63 -76
4 -29 6 -142 6 -252 -2 -259 -2 -245 15 -245 13 0 15 38 15 284 l0 284 -30 7
c-16 3 -39 14 -52 24 -47 36 -138 75 -298 131 -91 32 -190 69 -220 82 -30 14
-69 31 -87 38 -17 6 -46 23 -64 36 -18 13 -55 31 -83 40 -66 21 -74 29 -53 52
9 10 17 23 17 29 0 6 12 37 26 69 30 67 53 148 61 214 3 25 12 54 19 65 8 11
14 30 14 42 0 12 16 81 35 152 21 76 35 152 35 185 0 50 -3 58 -22 65 -14 5
-31 5 -42 -1 -17 -9 -18 -7 -12 18 25 109 13 398 -19 448 -7 11 -19 40 -26 64
-7 23 -15 42 -19 42 -4 0 -10 8 -12 18 -3 9 -6 20 -7 24 -8 29 -189 210 -202
203 -4 -3 -11 0 -16 7 -9 15 -145 83 -185 94 -5 1 -9 3 -10 4 -2 1 -23 4 -48
5 -25 1 -79 5 -120 8 -41 3 -86 1 -100 -3z"/>
<path d="M1287 2524 c-4 -4 -7 -23 -6 -43 l1 -36 9 33 c11 36 9 58 -4 46z"/>
<path d="M1371 2522 c-1 -7 10 -23 24 -36 14 -13 25 -31 25 -40 0 -9 5 -16 10
-16 14 0 12 32 -3 51 -7 9 -17 14 -23 12 -6 -2 -16 7 -22 19 -6 13 -11 17 -11
10z"/>
<path d="M1590 2502 c1 -13 38 -52 49 -52 6 0 11 -17 12 -37 0 -32 2 -34 9
-16 10 24 3 63 -12 63 -5 0 -20 11 -33 25 -14 13 -25 21 -25 17z"/>
<path d="M1855 1981 c7 -12 -15 -26 -24 -15 -11 15 -31 15 -25 -1 4 -11 -1
-13 -22 -9 -15 3 -32 8 -37 11 -6 3 -7 1 -4 -5 5 -6 0 -8 -13 -5 -11 3 -17 10
-13 16 4 7 0 8 -13 3 -22 -9 -46 -15 -94 -23 -19 -3 -41 -10 -47 -16 -16 -12
-17 -47 -2 -47 5 0 7 4 4 10 -4 6 2 7 17 1 22 -8 84 1 96 15 4 4 -1 4 -11 1
-15 -6 -16 -4 -7 13 12 22 30 27 30 8 0 -9 4 -8 10 2 8 13 10 13 10 -2 0 -9
-6 -19 -12 -21 -25 -10 38 -5 97 7 40 9 53 15 40 18 -14 4 -11 6 10 6 33 1 68
-10 63 -20 -2 -3 9 -18 25 -32 27 -25 27 -25 27 -3 -1 14 -18 35 -49 60 -48
36 -68 46 -56 28z"/>
<path d="M991 1956 c-67 -24 -105 -52 -114 -85 -4 -17 -2 -18 14 -8 10 6 19
15 19 18 0 13 68 39 100 39 19 0 29 4 25 11 -9 13 67 1 76 -13 3 -5 12 -6 20
-3 8 3 40 -3 72 -14 32 -10 59 -15 62 -12 6 11 -33 41 -55 41 -10 0 -22 5 -25
10 -3 6 -1 10 5 10 6 0 8 4 5 10 -3 5 -16 9 -28 9 -12 0 -42 2 -67 4 -31 4
-64 -1 -109 -17z"/>
<path d="M1225 1846 c22 -14 47 -25 55 -26 19 0 -37 36 -70 45 -18 5 -14 -1
15 -19z"/>
<path d="M996 1828 c-18 -25 -21 -68 -6 -68 5 0 14 9 20 20 9 17 58 50 75 50
3 0 2 -11 -1 -26 -7 -28 27 -74 56 -74 32 0 60 30 60 65 0 31 -3 35 -35 41
-19 3 -41 4 -50 1 -8 -4 -17 -2 -20 3 -7 12 -65 -9 -85 -30 -12 -13 -13 -13
-5 0 5 8 16 21 24 28 13 10 13 12 -2 12 -9 0 -23 -10 -31 -22z m184 -33 c0 -7
-11 -16 -25 -19 -17 -4 -23 -11 -18 -19 5 -9 3 -9 -9 0 -8 7 -17 12 -20 10 -2
-1 9 10 26 25 29 27 46 28 46 3z"/>
<path d="M1675 1822 c-31 -22 3 -92 45 -92 29 0 62 37 55 61 -9 28 19 25 42
-5 10 -13 30 -27 43 -31 l25 -7 -25 27 c-14 15 -37 33 -52 41 -28 15 -116 19
-133 6z m73 -39 c-14 -17 -48 -17 -48 0 0 17 43 36 52 23 4 -6 2 -16 -4 -23z"/>
<path d="M1252 1788 l27 -24 -27 -12 -27 -12 30 6 c16 3 32 7 34 10 6 6 -20
34 -43 46 -15 7 -14 4 6 -14z"/>
<path d="M1275 1435 c-11 -19 -16 -37 -13 -41 4 -3 10 6 14 20 3 15 16 33 27
41 16 11 18 15 6 15 -9 0 -24 -16 -34 -35z"/>
<path d="M1538 1332 c-30 -6 -20 -17 15 -16 50 2 57 3 57 14 0 10 -32 10 -72
2z"/>
<path d="M1365 1269 c-7 -20 -50 -43 -65 -34 -4 3 -15 -6 -24 -20 -9 -14 -12
-25 -6 -25 5 0 13 0 18 0 4 0 8 5 8 10 3 23 6 24 14 5 9 -19 9 -19 16 3 10 35
26 26 19 -10 -7 -33 -7 -33 10 -10 12 17 14 26 6 36 -14 17 -2 29 16 15 7 -6
13 -25 13 -41 0 -26 2 -29 15 -18 9 7 12 16 8 19 -4 3 -8 15 -8 26 0 11 -6 19
-12 18 -15 -3 -17 13 -3 22 11 7 4 25 -10 25 -5 0 -12 -9 -15 -21z"/>
<path d="M1497 1274 c-5 -5 8 -73 16 -80 3 -3 14 0 25 7 18 11 18 14 3 40 -16
28 -35 42 -44 33z"/>
<path d="M1181 1213 c-9 -15 -12 -16 -20 -4 -7 11 -13 11 -32 -3 -13 -9 -18
-16 -10 -16 7 0 29 -8 49 -17 23 -11 37 -13 39 -6 2 5 14 8 28 6 19 -4 23 -2
19 14 -4 15 -12 18 -35 15 -24 -3 -28 -1 -23 12 8 21 -2 20 -15 -1z"/>
<path d="M1570 1207 c0 -24 25 -40 38 -24 6 7 8 17 4 22 -11 16 -42 17 -42 2z"/>
<path d="M1671 1178 c-16 -25 -10 -31 20 -20 27 10 59 5 59 -9 0 -5 5 -9 10
-9 14 0 12 16 -5 33 -8 8 -12 17 -9 20 3 3 -10 5 -29 5 -23 0 -37 -6 -46 -20z"/>
<path d="M1210 1146 c0 -9 54 -35 86 -41 16 -3 63 -7 104 -10 73 -4 73 -4 15
4 -57 8 -150 31 -187 46 -10 4 -18 5 -18 1z"/>
<path d="M1756 962 c-2 -4 -1 -14 5 -22 5 -8 9 -26 9 -40 1 -21 2 -22 10 -8 7
10 7 25 1 41 -5 14 -7 28 -4 31 4 3 1 6 -5 6 -6 0 -13 -4 -16 -8z"/>
<path d="M956 668 c-10 -38 -7 -60 7 -52 10 6 10 4 0 -7 -7 -7 -13 -18 -13
-23 0 -6 5 -4 10 4 7 11 8 2 4 -27 -4 -27 -3 -43 3 -43 6 0 13 -14 17 -31 13
-67 84 -174 103 -156 3 4 -2 14 -13 22 -14 11 -15 15 -4 14 30 -3 40 1 40 16
0 13 -4 14 -20 5 -21 -11 -40 -6 -40 11 0 6 4 8 9 4 5 -3 12 -1 15 4 4 5 2 12
-3 16 -6 3 -20 27 -33 53 -13 26 -26 49 -29 52 -4 3 -12 31 -19 63 -6 31 -16
57 -21 57 -6 0 -5 8 1 20 6 11 7 20 2 20 -6 0 -12 -10 -16 -22z"/>
<path d="M1260 450 c0 -41 46 -155 78 -188 18 -20 16 29 -3 54 -8 10 -15 29
-15 42 0 13 -6 22 -15 22 -8 0 -15 8 -15 18 -1 22 -29 73 -30 52z"/>
<path d="M1120 374 c0 -6 13 -28 30 -49 16 -20 27 -42 23 -49 -4 -6 -10 -1
-14 14 -5 17 -7 19 -8 7 -1 -15 -5 -14 -27 10 -21 23 -23 24 -14 5 15 -30 51
-53 77 -48 17 4 20 1 16 -11 -4 -11 -3 -14 6 -9 7 5 20 -2 31 -17 11 -14 31
-28 44 -31 14 -3 27 -15 31 -25 4 -13 12 -17 25 -14 11 3 39 -4 63 -16 24 -12
55 -21 70 -21 15 0 27 -4 27 -8 0 -4 16 -8 35 -8 56 0 23 20 -85 51 -121 35
-178 69 -262 159 -37 39 -67 66 -68 60z"/>
<path d="M931 310 c0 -14 4 -34 9 -45 7 -17 9 -16 9 10 0 17 -4 37 -9 45 -8
12 -10 10 -9 -10z"/>
<path d="M1806 235 c-8 -9 -19 -16 -23 -17 -26 -4 -43 -11 -43 -19 0 -4 -18
-13 -40 -19 -22 -6 -40 -15 -40 -20 0 -6 -9 -10 -19 -10 -11 0 -23 -4 -26 -10
-3 -5 -16 -10 -28 -11 -12 0 -17 -3 -10 -5 24 -10 233 77 233 97 0 5 7 9 15 9
8 0 15 5 15 10 0 15 -16 12 -34 -5z"/>
<path d="M2736 218 c-3 -13 -6 -50 -6 -83 0 -78 17 -54 19 27 1 33 4 64 7 69
3 5 1 9 -4 9 -5 0 -12 -10 -16 -22z"/>
</g>
</svg>
